<?xml version="1.0" encoding="utf-8"?>
<!-- Generator: Adobe Illustrator 25.2.0, SVG Export Plug-In . SVG Version: 6.00 Build 0)  -->
<svg version="1.1" id="Layer_1" xmlns="http://www.w3.org/2000/svg" xmlns:xlink="http://www.w3.org/1999/xlink" x="0px" y="0px"
	 viewBox="0 0 705 429" style="enable-background:new 0 0 705 429;" xml:space="preserve">
<style type="text/css">
	.st0{fill:#0066FF;}
	.st1{fill:#FFFFFF;}
	.st2{fill:#66CCFF;}
	.st3{fill:#3399FF;}
</style>
<g>
	<g>
		<g>
			<g>
				<path class="st0" d="M698,241.3c0,70.97-57.74,128.72-128.71,128.72H104.41C49.81,370.01,5.4,325.6,5.4,271
					s44.42-99.01,99.01-99.01c5.87,0,11.86,0.55,17.81,1.64l2.93,0.53l1.11-2.77c9.91-24.73,33.52-40.72,60.15-40.72
					c3.14,0,6.34,0.24,9.5,0.69l3.04,0.45l0.96-2.92c12-36.39,34.73-67.68,65.76-90.49C297.32,15.13,334.89,2.82,374.3,2.82
					c72.78,0,138.75,43.05,168.1,109.67l1.16,2.64l2.82-0.51c7.52-1.35,15.22-2.04,22.92-2.04C640.26,112.59,698,170.33,698,241.3z"
					/>
			</g>
		</g>
		<polygon class="st1" points="284.68,370.99 277.52,370.99 277.52,301.86 302.66,276.72 302.66,191.24 309.82,191.24 
			309.82,279.68 284.68,304.83 		"/>
		<rect x="340.62" y="271.81" class="st1" width="7.16" height="99.18"/>
		<rect x="385.43" y="223.5" class="st1" width="7.16" height="147.49"/>
		<polygon class="st1" points="506.76,370.01 499.6,370.01 499.6,294.98 448.97,244.36 448.97,136.76 456.13,136.76 456.13,241.39 
			506.76,292.02 		"/>
		<rect x="458.42" y="326.29" class="st1" width="7.16" height="43.67"/>
		<path class="st1" d="M306.24,193.34c-10.4,0-18.86-8.46-18.86-18.86c0-10.4,8.46-18.86,18.86-18.86s18.86,8.46,18.86,18.86
			C325.1,184.88,316.64,193.34,306.24,193.34z M306.24,162.79c-6.45,0-11.7,5.25-11.7,11.7c0,6.45,5.25,11.7,11.7,11.7
			s11.7-5.25,11.7-11.7C317.94,168.03,312.69,162.79,306.24,162.79z"/>
		<path class="st1" d="M389.01,225.38c-10.4,0-18.86-8.46-18.86-18.86c0-10.4,8.46-18.86,18.86-18.86c10.4,0,18.86,8.46,18.86,18.86
			C407.86,216.92,399.41,225.38,389.01,225.38z M389.01,194.82c-6.45,0-11.7,5.25-11.7,11.7c0,6.45,5.25,11.7,11.7,11.7
			c6.45,0,11.7-5.25,11.7-11.7C400.71,200.07,395.46,194.82,389.01,194.82z"/>
		<path class="st1" d="M344.2,273.3c-10.4,0-18.86-8.46-18.86-18.86c0-10.4,8.46-18.86,18.86-18.86s18.86,8.46,18.86,18.86
			C363.06,264.84,354.6,273.3,344.2,273.3z M344.2,242.74c-6.45,0-11.7,5.25-11.7,11.7c0,6.45,5.25,11.7,11.7,11.7
			s11.7-5.25,11.7-11.7C355.9,247.99,350.65,242.74,344.2,242.74z"/>
		<path class="st1" d="M452.55,140.34c-10.4,0-18.86-8.46-18.86-18.86c0-10.4,8.46-18.86,18.86-18.86c10.4,0,18.86,8.46,18.86,18.86
			C471.41,131.88,462.95,140.34,452.55,140.34z M452.55,109.78c-6.45,0-11.7,5.25-11.7,11.7c0,6.45,5.25,11.7,11.7,11.7
			s11.7-5.25,11.7-11.7C464.25,115.03,459,109.78,452.55,109.78z"/>
		<path class="st1" d="M462,330.35c-10.4,0-18.86-8.46-18.86-18.86c0-10.4,8.46-18.86,18.86-18.86c10.4,0,18.86,8.46,18.86,18.86
			C480.86,321.89,472.4,330.35,462,330.35z M462,299.79c-6.45,0-11.7,5.25-11.7,11.7c0,6.45,5.25,11.7,11.7,11.7
			s11.7-5.25,11.7-11.7C473.7,305.04,468.45,299.79,462,299.79z"/>
		<rect x="543.91" y="326.37" class="st1" width="7.16" height="43.67"/>
		<path class="st1" d="M547.49,330.43c-10.4,0-18.86-8.46-18.86-18.86c0-10.4,8.46-18.86,18.86-18.86s18.86,8.46,18.86,18.86
			C566.34,321.97,557.88,330.43,547.49,330.43z M547.49,299.87c-6.45,0-11.7,5.25-11.7,11.7c0,6.45,5.25,11.7,11.7,11.7
			c6.45,0,11.7-5.25,11.7-11.7C559.19,305.12,553.94,299.87,547.49,299.87z"/>
		<path class="st2" d="M112.86,333.95H88.95c-0.3,0-0.55-0.25-0.55-0.55v-23.91c0-0.3,0.25-0.55,0.55-0.55h23.91
			c0.3,0,0.55,0.25,0.55,0.55v23.91C113.41,333.7,113.16,333.95,112.86,333.95z"/>
		<path class="st3" d="M205.23,269.26h-24.92c-0.44,0-0.8-0.36-0.8-0.8v-24.92c0-0.44,0.36-0.8,0.8-0.8h24.92
			c0.44,0,0.8,0.36,0.8,0.8v24.92C206.03,268.91,205.67,269.26,205.23,269.26z"/>
		<path class="st3" d="M86.75,299.56H72.89c-0.44,0-0.8-0.36-0.8-0.8V284.9c0-0.44,0.36-0.8,0.8-0.8h13.86c0.44,0,0.8,0.36,0.8,0.8
			v13.86C87.55,299.21,87.2,299.56,86.75,299.56z"/>
		<path class="st2" d="M161.71,218.01h-18.85c-0.41,0-0.74-0.33-0.74-0.74v-18.85c0-0.41,0.33-0.74,0.74-0.74h18.85
			c0.41,0,0.74,0.33,0.74,0.74v18.85C162.45,217.68,162.12,218.01,161.71,218.01z"/>
		<path class="st2" d="M178.53,356.94h-32.16c-0.54,0-0.98-0.44-0.98-0.98v-32.16c0-0.54,0.44-0.98,0.98-0.98h32.16
			c0.54,0,0.98,0.44,0.98,0.98v32.16C179.51,356.51,179.07,356.94,178.53,356.94z"/>
		<path class="st1" d="M132,366.1h-17.88c-0.39,0-0.71-0.32-0.71-0.71v-17.88c0-0.39,0.32-0.71,0.71-0.71H132
			c0.39,0,0.71,0.32,0.71,0.71v17.88C132.72,365.78,132.4,366.1,132,366.1z"/>
		<path class="st2" d="M166.81,399.95h-17.88c-0.39,0-0.71-0.32-0.71-0.71v-17.88c0-0.39,0.32-0.71,0.71-0.71h17.88
			c0.39,0,0.71,0.32,0.71,0.71v17.88C167.52,399.63,167.2,399.95,166.81,399.95z"/>
		<path class="st3" d="M190.32,426.27h-15.68c-0.17,0-0.31-0.14-0.31-0.31v-15.68c0-0.17,0.14-0.31,0.31-0.31h15.68
			c0.17,0,0.31,0.14,0.31,0.31v15.68C190.63,426.13,190.49,426.27,190.32,426.27z"/>
		<path class="st1" d="M101.2,240.43l3.83-4.78c0.25-0.31,0.7-0.36,1-0.11l4.78,3.83c0.31,0.25,0.36,0.7,0.11,1l-3.83,4.78
			c-0.25,0.31-0.7,0.36-1,0.11l-4.78-3.83C101,241.19,100.95,240.74,101.2,240.43z"/>
		<path class="st1" d="M157.59,281.14l3.83-4.78c0.25-0.31,0.7-0.36,1-0.11l4.78,3.83c0.31,0.25,0.36,0.7,0.11,1l-3.83,4.78
			c-0.25,0.31-0.7,0.36-1,0.11l-4.78-3.83C157.39,281.9,157.34,281.45,157.59,281.14z"/>
		<path class="st2" d="M187.91,189.21l3.83-4.78c0.25-0.31,0.7-0.36,1-0.11l4.78,3.83c0.31,0.25,0.36,0.7,0.11,1l-3.83,4.78
			c-0.25,0.31-0.7,0.36-1,0.11l-4.78-3.83C187.71,189.97,187.66,189.52,187.91,189.21z"/>
		<path class="st2" d="M133.08,330.6l1.92-2.4c0.25-0.31,0.7-0.36,1-0.11l2.4,1.92c0.31,0.25,0.36,0.7,0.11,1l-1.92,2.4
			c-0.25,0.31-0.7,0.36-1,0.11l-2.4-1.92C132.88,331.36,132.83,330.91,133.08,330.6z"/>
		<path class="st3" d="M95.94,351.3l1.92-2.4c0.25-0.31,0.7-0.36,1-0.11l2.4,1.92c0.31,0.25,0.36,0.7,0.11,1l-1.92,2.4
			c-0.25,0.31-0.7,0.36-1,0.11l-2.4-1.92C95.75,352.06,95.7,351.61,95.94,351.3z"/>
		<path class="st1" d="M74.03,333.74l1.92-2.4c0.25-0.31,0.7-0.36,1-0.11l2.4,1.92c0.31,0.25,0.36,0.7,0.11,1l-1.92,2.4
			c-0.25,0.31-0.7,0.36-1,0.11l-2.4-1.92C73.83,334.5,73.79,334.05,74.03,333.74z"/>
		<path class="st1" d="M82.53,267.84l1.92-2.4c0.25-0.31,0.7-0.36,1-0.11l2.4,1.92c0.31,0.25,0.36,0.7,0.11,1l-1.92,2.4
			c-0.25,0.31-0.7,0.36-1,0.11l-2.4-1.92C82.33,268.59,82.28,268.15,82.53,267.84z"/>
		<path class="st3" d="M187.91,380.43l1.92-2.4c0.25-0.31,0.7-0.36,1-0.11l2.4,1.92c0.31,0.25,0.36,0.7,0.11,1l-1.92,2.4
			c-0.25,0.31-0.7,0.36-1,0.11l-2.4-1.92C187.72,381.19,187.67,380.74,187.91,380.43z"/>
		<path class="st2" d="M151.57,307.75h-30.4c-0.39,0-0.71-0.32-0.71-0.71v-30.4c0-0.39,0.32-0.71,0.71-0.71h30.4
			c0.39,0,0.71,0.32,0.71,0.71v30.4C152.28,307.43,151.96,307.75,151.57,307.75z"/>
		<path class="st1" d="M135.66,265.84h-17.88c-0.39,0-0.71-0.32-0.71-0.71v-17.88c0-0.39,0.32-0.71,0.71-0.71h17.88
			c0.39,0,0.71,0.32,0.71,0.71v17.88C136.37,265.52,136.05,265.84,135.66,265.84z"/>
		<path class="st1" d="M201.45,321.45h-18.52c-0.34,0-0.61-0.28-0.61-0.61v-18.52c0-0.34,0.28-0.61,0.61-0.61h18.52
			c0.34,0,0.61,0.28,0.61,0.61v18.52C202.06,321.17,201.79,321.45,201.45,321.45z"/>
	</g>
</g>
</svg>
